<?xml version="1.0" encoding="UTF-8" standalone="no"?>
<svg
   version="1.1"
   width="925.06799"
   height="790.41919"
   viewBox="0 0 925.06799 790.41919"
   id="svg52"
   sodipodi:docname="logo_round.svg"
   inkscape:export-filename="..\png\logo_round.png"
   inkscape:export-xdpi="96"
   inkscape:export-ydpi="96"
   inkscape:version="1.2.2 (732a01da63, 2022-12-09)"
   xmlns:inkscape="http://www.inkscape.org/namespaces/inkscape"
   xmlns:sodipodi="http://sodipodi.sourceforge.net/DTD/sodipodi-0.dtd"
   xmlns="http://www.w3.org/2000/svg"
   xmlns:svg="http://www.w3.org/2000/svg">
  <defs
     id="defs56" />
  <sodipodi:namedview
     id="namedview54"
     pagecolor="#505050"
     bordercolor="#eeeeee"
     borderopacity="1"
     inkscape:showpageshadow="0"
     inkscape:pageopacity="0"
     inkscape:pagecheckerboard="0"
     inkscape:deskcolor="#505050"
     showgrid="false"
     inkscape:zoom="1.0930909"
     inkscape:cx="463.36495"
     inkscape:cy="395.66701"
     inkscape:window-width="1920"
     inkscape:window-height="1051"
     inkscape:window-x="-9"
     inkscape:window-y="-9"
     inkscape:window-maximized="1"
     inkscape:current-layer="svg52" />
  <g
     transform="translate(-287.46601,-2.3903226)"
     id="g50">
    <svg
       viewBox="0 0 251 248"
       data-background-color="#ffffff"
       preserveAspectRatio="xMidYMid"
       height="1482"
       width="1500"
       version="1.1"
       id="svg48"
       inkscape:label="svg48">
      <g
         id="tight-bounds"
         transform="translate(0.25550583,0.4)"
         inkscape:label="tight-bounds">
        <svg
           viewBox="0 0 250.48899 247.2"
           height="247.2"
           width="250.48898"
           version="1.1"
           id="svg43"
           inkscape:label="svg43">
          <g
             id="g39"
             inkscape:label="g39">
            <svg
               viewBox="0 0 395.52 390.32672"
               height="247.2"
               width="250.48898"
               version="1.1"
               id="svg37"
               inkscape:label="svg37">
              <g
                 transform="translate(0,233.28037)"
                 id="g24"
                 inkscape:label="g24">
                <svg
                   viewBox="0 0 395.52 157.04635"
                   height="157.04634"
                   width="395.51999"
                   version="1.1"
                   id="svg22"
                   inkscape:label="svg22">
                  <g
                     id="textblocktransform">
                    <svg
                       viewBox="0 0 395.52 157.04635"
                       height="157.04634"
                       width="395.51999"
                       id="textblock"
                       version="1.1"
                       inkscape:label="textblock">
                      <g
                         id="g9"
                         inkscape:label="g9">
                        <svg
                           viewBox="0 0 395.52 103.47239"
                           height="103.4724"
                           width="395.51999"
                           version="1.1"
                           id="svg7"
                           inkscape:label="svg7">
                          <g
                             id="g5"
                             inkscape:label="g5">
                            <svg
                               width="395.51999"
                               viewBox="1.8 -36.05 137.78 36.05"
                               height="103.4724"
                               data-palette-color="#6f605b"
                               version="1.1"
                               id="svg3"
                               inkscape:label="svg3" />
                          </g>
                        </svg>
                      </g>
                      <g
                         transform="translate(0,127.89974)"
                         id="g18"
                         inkscape:label="g18">
                        <svg
                           viewBox="0 0 395.52 29.146605"
                           height="29.146605"
                           width="395.51999"
                           version="1.1"
                           id="svg16">
                          <g
                             id="g14"
                             inkscape:label="g14">
                            <svg
                               width="395.51999"
                               viewBox="2.55 -38.55 687.93 50.7"
                               height="29.146605"
                               data-palette-color="#f36527"
                               version="1.1"
                               id="svg12"
                               inkscape:label="svg12" />
                          </g>
                        </svg>
                      </g>
                    </svg>
                  </g>
                </svg>
              </g>
              <g
                 transform="translate(75.54432)"
                 id="g33"
                 inkscape:label="g33">
                <svg
                   viewBox="0 0 244.43136 208.85302"
                   height="208.85301"
                   width="244.43137"
                   version="1.1"
                   id="svg31"
                   inkscape:label="svg31">
                  <g
                     id="g29"
                     inkscape:label="g29">
                    <svg
                       version="1.1"
                       x="0"
                       y="0"
                       viewBox="5 15.7 90 76.9"
                       enable-background="new 0 0 100 100"
                       xml:space="preserve"
                       height="208.85301"
                       width="244.43137"
                       class="icon-icon-0"
                       data-fill-palette-color="accent"
                       id="icon-0"><path
                         d="m 65.9,48.2 0.3,0.1 C 64,55.2 57.7,59.7 50.1,59.7 42.5,59.7 36.2,55.3 34,48.5 l 0.3,-0.1 c 2.1,6.7 8.3,11 15.7,11 C 57.5,59.3 63.7,55 65.9,48.2 M 95,64.6 C 90.9,72.9 84.7,79.9 76.9,84.8 68.9,89.9 59.6,92.6 50,92.6 40.4,92.6 31.1,89.9 23,84.7 15.3,79.7 9,72.7 5,64.4 9.3,58.5 16.7,53.4 26,50.3 L 26.2,50.2 26,49.5 C 25.4,47.8 25.1,46 25,44.2 v -0.8 l -0.2,0.1 c -0.8,0.2 -1.6,0.3 -2.5,0.3 -4.5,0 -8.1,-3 -8.1,-6.6 0,-0.3 0,-0.6 0.1,-0.9 V 36.1 L 14,36 c -3.3,-0.6 -5.7,-3.4 -5.7,-6.6 0,-3.7 3.2,-6.7 7.1,-6.7 0.4,0 0.8,0 1.3,0.1 h 0.2 v -0.2 c 0.3,-3.8 3.9,-6.9 8.3,-6.9 4.6,0 8.3,3.3 8.3,7.3 v 0.4 l 0.3,-0.2 c 4.4,-3.7 10.1,-5.7 15.9,-5.7 6,0 11.8,2.2 16.4,6.2 l 0.3,0.2 v -0.5 c 0,-4 3.7,-7.3 8.3,-7.3 4.4,0 8.1,3 8.3,6.9 v 0.2 h 0.2 c 0.4,-0.1 0.8,-0.1 1.3,-0.1 3.9,0 7.1,3 7.1,6.7 0,3.2 -2.4,6 -5.7,6.6 h -0.2 v 0.2 c 0.1,0.3 0.1,0.6 0.1,0.9 0,3.6 -3.6,6.6 -8.1,6.6 -1,0 -2,-0.2 -3,-0.5 l -0.2,-0.1 v 0.8 c -0.1,1.7 -0.4,3.4 -0.9,5.1 l -0.3,0.6 0.2,0.1 c 9.6,3.2 17.2,8.3 21.5,14.5 M 54.5,31.9 c 0,0.8 0.7,1.5 1.5,1.5 0.8,0 1.5,-0.7 1.5,-1.5 0,-0.8 -0.7,-1.5 -1.5,-1.5 -0.8,0.1 -1.5,0.7 -1.5,1.5 m -11.8,0.3 c 0,0.8 0.7,1.5 1.5,1.5 0.8,0 1.5,-0.7 1.5,-1.5 0,-0.8 -0.7,-1.5 -1.5,-1.5 -0.8,0 -1.5,0.6 -1.5,1.5 m 0.8,16.5 c 0.3,0.4 0.7,0.8 1.1,1.1 8.7,5.8 18.2,-3.6 12.3,-12.3 C 56.6,37.1 56.2,36.7 55.8,36.4 47,30.6 37.6,40 43.5,48.7 M 68.1,46 c -0.4,-0.5 -1,-0.8 -1.7,-0.8 -1.1,0 -2.1,0.9 -2.7,2.3 C 61,53.2 56,56.6 50.2,56.6 44.4,56.6 39.2,53 36.5,47.2 36,46 35,45.3 33.8,45.3 c -0.7,0 -1.4,0.3 -1.9,0.9 -0.4,0.4 -0.8,1.2 -0.6,2.5 2.7,8.5 10.1,14 18.9,14 8.7,0 15.8,-5.4 18.1,-13.8 0.5,-1.2 0.4,-2.2 -0.2,-2.9"
                         fill="#f36527"
                         data-fill-palette-color="accent"
                         id="path26" /></svg>
                  </g>
                </svg>
              </g>
              <g
                 id="g35" />
            </svg>
          </g>
          <defs
             id="defs41" />
        </svg>
        <rect
           width="250.48898"
           height="247.2"
           fill="none"
           stroke="none"
           visibility="hidden"
           id="rect45"
           x="0"
           y="0" />
      </g>
    </svg>
  </g>
</svg>
