<svg xmlns="http://www.w3.org/2000/svg" version="1.1" xmlns:xlink="http://www.w3.org/1999/xlink" xmlns:svgjs="http://svgjs.dev/svgjs" width="1500" height="1482" viewBox="0 0 1500 1482"><g transform="matrix(1,0,0,1,-1.5269272977956234,-2.3903225806451474)"><svg viewBox="0 0 251 248" data-background-color="#ffffff" preserveAspectRatio="xMidYMid meet" height="1482" width="1500" xmlns="http://www.w3.org/2000/svg" xmlns:xlink="http://www.w3.org/1999/xlink"><g id="tight-bounds" transform="matrix(1,0,0,1,0.2555058344977965,0.4000000000000057)"><svg viewBox="0 0 250.48898833100444 247.2" height="247.2" width="250.48898833100444"><g><svg viewBox="0 0 395.52000000000004 390.326715164022" height="247.2" width="250.48898833100444"><g transform="matrix(1,0,0,1,0,233.28036666891146)"><svg viewBox="0 0 395.52000000000004 157.04634849511055" height="157.04634849511055" width="395.52000000000004"><g id="textblocktransform"><svg viewBox="0 0 395.52000000000004 157.04634849511055" height="157.04634849511055" width="395.52000000000004" id="textblock"><g><svg viewBox="0 0 395.52000000000004 103.47239477503629" height="103.47239477503629" width="395.52000000000004"><g transform="matrix(1,0,0,1,0,0)"><svg width="395.52000000000004" viewBox="1.8 -36.05 137.78 36.05" height="103.47239477503629" data-palette-color="#6f605b"><path d="M1.8 0L2.95-35.5 12.1-35.5 12.1-31.1 5.95-31.1 5.95-21.15 11.4-21.15 11.4-18.65 6.2-17.75 6.2 0 1.8 0ZM17.75 0L14.8-2.1 14.8-27.5 16.95-29.1 23.2-29.1 25.2-27.7 25.2-1.8 22.05 0 17.75 0ZM18.6-3.15L21.2-3.15Q21.5-3.15 21.57-3.23 21.65-3.3 21.65-3.45L21.65-3.45 22.15-26.05Q22.15-26.3 22.07-26.4 22-26.5 21.7-26.5L21.7-26.5 18.6-26.5Q18.15-26.5 18.15-26.05L18.15-26.05 18.15-3.45Q18.15-3.3 18.22-3.23 18.3-3.15 18.6-3.15L18.6-3.15ZM31.84 0L29.7-1.6 29.7-27.5 31.09-29.15 33.05-29.15 33.05-3.35Q33.05-2.9 33.5-2.9L33.5-2.9 36.59-2.9Q36.9-2.9 36.97-3 37.05-3.1 37.05-3.35L37.05-3.35 36.55-29.1 40.09-29.1 40.09-1.4 38.09 0 31.84 0ZM44.14 0L45.29-35.5 54.44-35.5 54.44-31.1 48.29-31.1 48.29-21.15 53.74-21.15 53.74-18.65 48.54-17.75 48.54 0 44.14 0ZM60.09 0L57.14-2.1 57.14-27.5 59.29-29.1 65.54-29.1 67.54-27.7 67.54-1.8 64.39 0 60.09 0ZM60.94-3.15L63.54-3.15Q63.84-3.15 63.91-3.23 63.99-3.3 63.99-3.45L63.99-3.45 64.49-26.05Q64.49-26.3 64.42-26.4 64.34-26.5 64.04-26.5L64.04-26.5 60.94-26.5Q60.49-26.5 60.49-26.05L60.49-26.05 60.49-3.45Q60.49-3.3 60.56-3.23 60.64-3.15 60.94-3.15L60.94-3.15ZM74.19 0L72.04-1.6 72.04-27.5 73.44-29.15 75.39-29.15 75.39-3.35Q75.39-2.9 75.84-2.9L75.84-2.9 78.94-2.9Q79.24-2.9 79.31-3 79.39-3.1 79.39-3.35L79.39-3.35 78.89-29.1 82.44-29.1 82.44-1.4 80.44 0 74.19 0ZM86.49 0L87.64-35.5 96.79-35.5 96.79-31.1 90.64-31.1 90.64-21.15 96.09-21.15 96.09-18.65 90.89-17.75 90.89 0 86.49 0ZM102.43 0L99.48-2.1 99.48-27.5 101.63-29.1 107.88-29.1 109.88-27.7 109.88-1.8 106.73 0 102.43 0ZM103.28-3.15L105.88-3.15Q106.18-3.15 106.26-3.23 106.33-3.3 106.33-3.45L106.33-3.45 106.83-26.05Q106.83-26.3 106.76-26.4 106.68-26.5 106.38-26.5L106.38-26.5 103.28-26.5Q102.83-26.5 102.83-26.05L102.83-26.05 102.83-3.45Q102.83-3.3 102.91-3.23 102.98-3.15 103.28-3.15L103.28-3.15ZM117.33 0L114.38-2.1 114.38-27.5 116.53-29.1 122.78-29.1 124.78-27.7 124.78-1.8 121.63 0 117.33 0ZM118.18-3.15L120.78-3.15Q121.08-3.15 121.16-3.23 121.23-3.3 121.23-3.45L121.23-3.45 121.73-26.05Q121.73-26.3 121.66-26.4 121.58-26.5 121.28-26.5L121.28-26.5 118.18-26.5Q117.73-26.5 117.73-26.05L117.73-26.05 117.73-3.45Q117.73-3.3 117.81-3.23 117.88-3.15 118.18-3.15L118.18-3.15ZM131.93 0Q130.48 0 129.93-0.43 129.38-0.85 129.38-1.8L129.38-1.8 129.28-26.4Q129.28-27.7 129.85-28.4 130.43-29.1 131.38-29.1L131.38-29.1 136.03-29.1 135.83-36.05 139.58-36.05 139.33 0 131.93 0ZM133.38-3.15L135.48-3.15Q135.78-3.15 135.85-3.23 135.93-3.3 135.93-3.45L135.93-3.45 135.93-25.55Q135.93-26 135.48-26L135.48-26 132.88-26Q132.58-26 132.5-25.9 132.43-25.8 132.43-25.55L132.43-25.55 132.93-3.45Q132.93-3.3 133-3.23 133.08-3.15 133.38-3.15L133.38-3.15Z" opacity="1" transform="matrix(1,0,0,1,0,0)" fill="#6f605b" class="wordmark-text-0" data-fill-palette-color="primary" id="text-0"></path></svg></g></svg></g><g transform="matrix(1,0,0,1,0,127.89974384394776)"><svg viewBox="0 0 395.52000000000004 29.146604651162797" height="29.146604651162797" width="395.52000000000004"><g transform="matrix(1,0,0,1,0,0)"><svg width="395.52000000000004" viewBox="2.55 -38.55 687.9300000000001 50.699999999999996" height="29.146604651162797" data-palette-color="#f36527"><path d="M28.5-33L27.6-29.3Q26.35-29.7 24.95-30.03 23.55-30.35 21.88-30.58 20.2-30.8 18.35-30.8L18.35-30.8Q15.35-30.8 13.25-29.5 11.15-28.2 9.83-26.18 8.5-24.15 7.9-21.65 7.3-19.15 7.3-16.7L7.3-16.7Q7.3-13.6 8.18-11.08 9.05-8.55 10.58-6.78 12.1-5 14.13-4.05 16.15-3.1 18.4-3.1L18.4-3.1Q20.5-3.1 22.25-3.33 24-3.55 25.25-3.8L25.25-3.8Q26.7-4.1 27.85-4.5L27.85-4.5 28.7-0.95Q27.35-0.5 25.7-0.15L25.7-0.15Q24.3 0.15 22.45 0.4 20.6 0.65 18.4 0.65L18.4 0.65Q14.45 0.65 11.48-0.65 8.5-1.95 6.53-4.28 4.55-6.6 3.55-9.78 2.55-12.95 2.55-16.75L2.55-16.75Q2.55-21.1 3.75-24.43 4.95-27.75 7.05-30 9.15-32.25 12.05-33.4 14.95-34.55 18.4-34.55L18.4-34.55Q20.5-34.55 22.33-34.33 24.15-34.1 25.68-33.75 27.2-33.4 28.5-33L28.5-33ZM33.6 0L33.6-21.1Q33.6-22.25 33.35-24.7L33.35-24.7 37.05-25.2 37.45-21.55 37.5-21.55Q38.4-22.7 39.25-23.55 40.1-24.4 41.02-25.03 41.95-25.65 42.8-25.65L42.8-25.65Q43.95-25.7 46-25.4L46-25.4 45.1-21.55Q43.45-21.85 42.8-21.8L42.8-21.8Q41.95-21.8 41-21 40.05-20.2 39.35-19.3L39.35-19.3Q38.45-18.2 37.6-16.8L37.6-16.8 37.6 0 33.6 0ZM64.05-5.85L64.05-11.55Q63.05-11.5 62.15-11.45 61.25-11.4 60.37-11.33 59.5-11.25 58.8-11.15L58.8-11.15Q55.2-10.7 53.7-9.58 52.2-8.45 52.2-6.35L52.2-6.35Q52.2-4.6 53.27-3.73 54.34-2.85 56.09-2.85L56.09-2.85Q58.5-2.85 60.37-3.68 62.25-4.5 64.05-5.85L64.05-5.85ZM64.5 0.4L64-2.35Q61.65-1 59.62-0.18 57.59 0.65 55.25 0.65L55.25 0.65Q51.9 0.65 49.92-0.98 47.95-2.6 47.95-6.35L47.95-6.35Q47.95-8.3 48.95-9.75 49.95-11.2 51.57-12.18 53.2-13.15 55.25-13.7 57.3-14.25 59.45-14.4L59.45-14.4Q60.34-14.5 61.8-14.58 63.25-14.65 64.05-14.7L64.05-14.7Q64.05-16.45 63.95-17.82 63.84-19.2 63.34-20.18 62.84-21.15 61.87-21.65 60.9-22.15 59.09-22.15L59.09-22.15Q57.65-22.15 56.3-21.98 54.95-21.8 53.9-21.6L53.9-21.6Q52.65-21.35 51.59-21.05L51.59-21.05 50.8-24.5Q52.05-24.8 53.5-25.05L53.5-25.05Q54.75-25.3 56.4-25.48 58.05-25.65 59.95-25.65L59.95-25.65Q62.5-25.65 64.07-24.9 65.65-24.15 66.52-22.88 67.4-21.6 67.72-19.98 68.05-18.35 68.05-16.55L68.05-16.55 68.05-4.55Q68.05-3.85 68.07-3.08 68.09-2.3 68.17-1.55 68.25-0.8 68.34 0L68.34 0 64.5 0.4ZM90.79 11.45L90.79-2Q89.34-0.95 87.37-0.15 85.39 0.65 83.74 0.65L83.74 0.65Q81.69 0.65 79.87-0.05 78.04-0.75 76.67-2.3 75.29-3.85 74.49-6.33 73.69-8.8 73.69-12.4L73.69-12.4Q73.69-15.8 74.82-18.3 75.94-20.8 77.72-22.43 79.49-24.05 81.67-24.85 83.84-25.65 85.89-25.65L85.89-25.65Q87.79-25.65 88.99-25.43 90.19-25.2 91.09-24.95 91.99-24.7 92.79-24.48 93.59-24.25 94.74-24.25L94.74-24.25 94.74 10.95 90.79 11.45ZM84.19-2.85L84.19-2.85Q85.29-2.85 86.44-3.25 87.59-3.65 88.64-4.2 89.69-4.75 90.79-5.5L90.79-5.5 90.79-21.45Q90.34-21.6 89.69-21.8L89.69-21.8Q89.14-21.9 88.19-22.03 87.24-22.15 85.89-22.15L85.89-22.15Q83.79-22.15 82.29-21.4 80.79-20.65 79.82-19.33 78.84-18 78.39-16.28 77.94-14.55 77.94-12.6L77.94-12.6Q77.94-10.85 78.32-9.1 78.69-7.35 79.49-5.95 80.29-4.55 81.44-3.7 82.59-2.85 84.19-2.85ZM117.29 0.4L116.99-2.75 116.89-2.75Q116.44-2.4 115.59-1.83 114.74-1.25 113.64-0.7 112.54-0.15 111.22 0.25 109.89 0.65 108.54 0.65L108.54 0.65Q106.69 0.65 105.39 0.18 104.09-0.3 103.29-1.4 102.49-2.5 102.14-4.3 101.79-6.1 101.79-8.8L101.79-8.8 101.79-25.15 105.79-25.15 105.79-9.4Q105.79-7.9 105.84-6.7 105.89-5.5 106.19-4.65 106.49-3.8 107.17-3.33 107.84-2.85 109.09-2.85L109.09-2.85Q110.39-2.85 111.79-3.4 113.19-3.95 114.34-4.65L114.34-4.65Q115.69-5.45 116.99-6.45L116.99-6.45 116.99-25.15 120.99-25.15 120.99-3.25Q121.04-1.45 121.24 0L121.24 0 117.29 0.4ZM146.09-3.95L146.84-0.6Q145.69-0.25 144.46 0 143.24 0.25 141.76 0.45 140.29 0.65 138.69 0.65L138.69 0.65Q136.19 0.65 134.04-0.05 131.89-0.75 130.29-2.3 128.69-3.85 127.76-6.33 126.84-8.8 126.84-12.4L126.84-12.4Q126.84-15.65 127.74-18.13 128.64-20.6 130.21-22.28 131.79-23.95 133.91-24.8 136.04-25.65 138.54-25.65L138.54-25.65Q140.99-25.65 142.79-24.7 144.59-23.75 145.76-22.13 146.94-20.5 147.51-18.32 148.09-16.15 148.09-13.75L148.09-13.75 147.34-11.55 131.19-11.55Q131.19-10 131.59-8.45 131.99-6.9 132.96-5.65 133.94-4.4 135.51-3.63 137.09-2.85 139.44-2.85L139.44-2.85Q140.94-2.85 142.19-3.03 143.44-3.2 144.36-3.43 145.29-3.65 146.09-3.95L146.09-3.95ZM131.34-14.75L143.94-14.75Q143.94-15.1 143.79-16.3 143.64-17.5 143.09-18.8 142.54-20.1 141.39-21.13 140.24-22.15 138.34-22.15L138.34-22.15Q136.24-22.15 134.89-21.28 133.54-20.4 132.74-19.2 131.94-18 131.64-16.75 131.34-15.5 131.34-14.75L131.34-14.75ZM151.13 0L151.13-1.55 165.49-22.05Q163.38-21.9 162.51-21.88 161.63-21.85 160.53-21.85L160.53-21.85 152.38-21.85 152.38-25.15 171.13-25.15 171.13-23.4 157.03-3.15Q158.84-3.25 159.44-3.28 160.03-3.3 160.59-3.3L160.59-3.3 171.09-3.3 171.09 0 151.13 0ZM174.78 5.8L176.48-6.5 180.73-6.5 177.93 6.4 174.78 5.8ZM214.93-24.85L214.13-21.5Q213.28-21.7 211.78-21.93 210.28-22.15 208.73-22.15L208.73-22.15Q206.48-22.15 205.05-21.25 203.63-20.35 202.83-18.93 202.03-17.5 201.73-15.78 201.43-14.05 201.43-12.4L201.43-12.4Q201.43-9.85 202.08-8.03 202.73-6.2 203.8-5.05 204.88-3.9 206.28-3.38 207.68-2.85 209.23-2.85L209.23-2.85Q210.28-2.85 211.25-2.98 212.23-3.1 213.05-3.28 213.88-3.45 214.63-3.7L214.63-3.7 215.43-0.35Q214.38-0.05 213.48 0.15 212.58 0.35 211.35 0.5 210.13 0.65 208.73 0.65L208.73 0.65Q205.98 0.65 203.83-0.05 201.68-0.75 200.2-2.3 198.73-3.85 197.95-6.35 197.18-8.85 197.18-12.45L197.18-12.45Q197.18-15.95 198.15-18.48 199.13-21 200.73-22.58 202.33-24.15 204.4-24.9 206.48-25.65 208.73-25.65L208.73-25.65Q209.93-25.65 211.05-25.53 212.18-25.4 213.03-25.25L213.03-25.25Q214.03-25.05 214.93-24.85L214.93-24.85ZM222.63-12.45L222.63-12.45Q222.63-7.6 224.8-5.23 226.98-2.85 230.68-2.85L230.68-2.85Q234.33-2.85 236.38-5.2 238.43-7.55 238.43-12.25L238.43-12.25Q238.43-17.25 236.25-19.7 234.08-22.15 230.33-22.15L230.33-22.15Q226.58-22.15 224.6-19.73 222.63-17.3 222.63-12.45ZM218.38-12.5L218.38-12.5Q218.38-16.3 219.58-18.82 220.78-21.35 222.63-22.88 224.48-24.4 226.6-25.03 228.73-25.65 230.63-25.65L230.63-25.65Q232.43-25.65 234.55-25.08 236.68-24.5 238.48-23.03 240.28-21.55 241.48-19.07 242.68-16.6 242.68-12.8L242.68-12.8Q242.68-8.85 241.45-6.25 240.23-3.65 238.38-2.13 236.53-0.6 234.38 0.03 232.23 0.65 230.38 0.65L230.38 0.65Q228.48 0.65 226.38 0.05 224.28-0.55 222.5-2.02 220.73-3.5 219.55-6.05 218.38-8.6 218.38-12.5ZM248.52 0L248.52-20.6Q248.52-22.3 248.22-24.7L248.22-24.7 251.97-25.2 252.52-22.05Q253.87-23.05 255.17-23.8 256.47-24.55 257.97-25.1 259.47-25.65 261.02-25.65L261.02-25.65Q263.52-25.65 264.97-24.78 266.42-23.9 267.12-21.8L267.12-21.8Q269.17-23.25 271.4-24.45 273.62-25.65 276.02-25.65L276.02-25.65Q277.87-25.65 279.17-25.18 280.47-24.7 281.27-23.6 282.07-22.5 282.42-20.7 282.77-18.9 282.77-16.2L282.77-16.2 282.77 0 278.77 0 278.77-15.75Q278.77-17.25 278.72-18.43 278.67-19.6 278.37-20.43 278.07-21.25 277.4-21.7 276.72-22.15 275.47-22.15L275.47-22.15Q274.32-22.15 273.3-21.83 272.27-21.5 271.17-20.9 270.07-20.3 267.77-18.45L267.77-18.45 267.77 0 263.77 0 263.77-15.75Q263.77-17.25 263.72-18.43 263.67-19.6 263.37-20.43 263.07-21.25 262.4-21.7 261.72-22.15 260.47-22.15L260.47-22.15Q259.17-22.15 257.77-21.6 256.37-21.05 255.12-20.3 253.87-19.55 252.52-18.55L252.52-18.55 252.52 0 248.52 0ZM289.87 0L289.87-20.6Q289.87-22.3 289.57-24.7L289.57-24.7 293.32-25.2 293.87-22.05Q295.22-23.05 296.52-23.8 297.82-24.55 299.32-25.1 300.82-25.65 302.37-25.65L302.37-25.65Q304.87-25.65 306.32-24.78 307.77-23.9 308.47-21.8L308.47-21.8Q310.52-23.25 312.75-24.45 314.97-25.65 317.37-25.65L317.37-25.65Q319.22-25.65 320.52-25.18 321.82-24.7 322.62-23.6 323.42-22.5 323.77-20.7 324.12-18.9 324.12-16.2L324.12-16.2 324.12 0 320.12 0 320.12-15.75Q320.12-17.25 320.07-18.43 320.02-19.6 319.72-20.43 319.42-21.25 318.75-21.7 318.07-22.15 316.82-22.15L316.82-22.15Q315.67-22.15 314.65-21.83 313.62-21.5 312.52-20.9 311.42-20.3 309.12-18.45L309.12-18.45 309.12 0 305.12 0 305.12-15.75Q305.12-17.25 305.07-18.43 305.02-19.6 304.72-20.43 304.42-21.25 303.75-21.7 303.07-22.15 301.82-22.15L301.82-22.15Q300.52-22.15 299.12-21.6 297.72-21.05 296.47-20.3 295.22-19.55 293.87-18.55L293.87-18.55 293.87 0 289.87 0ZM345.17-5.85L345.17-11.55Q344.17-11.5 343.27-11.45 342.37-11.4 341.49-11.33 340.62-11.25 339.92-11.15L339.92-11.15Q336.32-10.7 334.82-9.58 333.32-8.45 333.32-6.35L333.32-6.35Q333.32-4.6 334.39-3.73 335.47-2.85 337.22-2.85L337.22-2.85Q339.62-2.85 341.49-3.68 343.37-4.5 345.17-5.85L345.17-5.85ZM345.62 0.4L345.12-2.35Q342.77-1 340.74-0.18 338.72 0.65 336.37 0.65L336.37 0.65Q333.02 0.65 331.04-0.98 329.07-2.6 329.07-6.35L329.07-6.35Q329.07-8.3 330.07-9.75 331.07-11.2 332.69-12.18 334.32-13.15 336.37-13.7 338.42-14.25 340.57-14.4L340.57-14.4Q341.47-14.5 342.92-14.58 344.37-14.65 345.17-14.7L345.17-14.7Q345.17-16.45 345.07-17.82 344.97-19.2 344.47-20.18 343.97-21.15 342.99-21.65 342.02-22.15 340.22-22.15L340.22-22.15Q338.77-22.15 337.42-21.98 336.07-21.8 335.02-21.6L335.02-21.6Q333.77-21.35 332.72-21.05L332.72-21.05 331.92-24.5Q333.17-24.8 334.62-25.05L334.62-25.05Q335.87-25.3 337.52-25.48 339.17-25.65 341.07-25.65L341.07-25.65Q343.62-25.65 345.19-24.9 346.77-24.15 347.64-22.88 348.52-21.6 348.84-19.98 349.17-18.35 349.17-16.55L349.17-16.55 349.17-4.55Q349.17-3.85 349.19-3.08 349.22-2.3 349.29-1.55 349.37-0.8 349.47 0L349.47 0 345.62 0.4ZM356.27 0L356.27-20.15Q356.32-21.2 356.02-24.7L356.02-24.7 359.72-25.2 360.27-22Q361.77-23 363.24-23.75 364.72-24.5 366.27-25.08 367.82-25.65 369.27-25.65L369.27-25.65Q371.32-25.65 372.69-25.18 374.07-24.7 374.92-23.6 375.77-22.5 376.14-20.7 376.52-18.9 376.52-16.2L376.52-16.2 376.52 0 372.52 0 372.52-15.75Q372.52-17.25 372.47-18.43 372.42-19.6 372.04-20.43 371.67-21.25 370.89-21.7 370.12-22.15 368.72-22.15L368.72-22.15Q367.42-22.15 365.97-21.58 364.52-21 363.12-20.25 361.72-19.5 360.27-18.5L360.27-18.5 360.27 0 356.27 0ZM399.26-5.5L399.26-21.4Q397.46-21.9 396.46-22.03 395.46-22.15 394.41-22.15L394.41-22.15Q392.31-22.15 390.81-21.4 389.31-20.65 388.34-19.33 387.36-18 386.91-16.28 386.46-14.55 386.46-12.6L386.46-12.6Q386.46-10.85 386.84-9.1 387.21-7.35 388.01-5.95 388.81-4.55 389.96-3.7 391.11-2.85 392.71-2.85L392.71-2.85Q393.81-2.85 394.99-3.25 396.16-3.65 397.16-4.17 398.16-4.7 399.26-5.5L399.26-5.5ZM399.71 0.4L399.31-2Q398.16-1.2 397.09-0.68 396.01-0.15 394.74 0.25 393.46 0.65 392.26 0.65L392.26 0.65Q387.56 0.65 384.89-2.68 382.21-6 382.21-12.4L382.21-12.4Q382.21-16.2 383.44-18.75 384.66-21.3 386.51-22.83 388.36-24.35 390.49-25 392.61-25.65 394.41-25.65L394.41-25.65Q395.31-25.65 396.31-25.53 397.31-25.4 399.26-24.9L399.26-24.9 399.26-37.45 403.26-37.9 403.26-4.55Q403.26-3.85 403.29-3.08 403.31-2.3 403.39-1.55 403.46-0.8 403.56 0L403.56 0 399.71 0.4ZM428.36-3.95L429.11-0.6Q427.96-0.25 426.74 0 425.51 0.25 424.04 0.45 422.56 0.65 420.96 0.65L420.96 0.65Q418.46 0.65 416.31-0.05 414.16-0.75 412.56-2.3 410.96-3.85 410.04-6.33 409.11-8.8 409.11-12.4L409.11-12.4Q409.11-15.65 410.01-18.13 410.91-20.6 412.49-22.28 414.06-23.95 416.19-24.8 418.31-25.65 420.81-25.65L420.81-25.65Q423.26-25.65 425.06-24.7 426.86-23.75 428.04-22.13 429.21-20.5 429.79-18.32 430.36-16.15 430.36-13.75L430.36-13.75 429.61-11.55 413.46-11.55Q413.46-10 413.86-8.45 414.26-6.9 415.24-5.65 416.21-4.4 417.79-3.63 419.36-2.85 421.71-2.85L421.71-2.85Q423.21-2.85 424.46-3.03 425.71-3.2 426.64-3.43 427.56-3.65 428.36-3.95L428.36-3.95ZM413.61-14.75L426.21-14.75Q426.21-15.1 426.06-16.3 425.91-17.5 425.36-18.8 424.81-20.1 423.66-21.13 422.51-22.15 420.61-22.15L420.61-22.15Q418.51-22.15 417.16-21.28 415.81-20.4 415.01-19.2 414.21-18 413.91-16.75 413.61-15.5 413.61-14.75L413.61-14.75ZM433.41 0L433.41-1.55 447.76-22.05Q445.66-21.9 444.78-21.88 443.91-21.85 442.81-21.85L442.81-21.85 434.66-21.85 434.66-25.15 453.41-25.15 453.41-23.4 439.31-3.15Q441.11-3.25 441.71-3.28 442.31-3.3 442.86-3.3L442.86-3.3 453.36-3.3 453.36 0 433.41 0ZM457.06 5.8L458.76-6.5 463.01-6.5 460.21 6.4 457.06 5.8ZM496.5-5.5L496.5-21.4Q494.7-21.9 493.7-22.03 492.7-22.15 491.65-22.15L491.65-22.15Q489.55-22.15 488.05-21.4 486.55-20.65 485.58-19.33 484.6-18 484.15-16.28 483.7-14.55 483.7-12.6L483.7-12.6Q483.7-10.85 484.08-9.1 484.45-7.35 485.25-5.95 486.05-4.55 487.2-3.7 488.35-2.85 489.95-2.85L489.95-2.85Q491.05-2.85 492.23-3.25 493.4-3.65 494.4-4.17 495.4-4.7 496.5-5.5L496.5-5.5ZM496.95 0.4L496.55-2Q495.4-1.2 494.33-0.68 493.25-0.15 491.98 0.25 490.7 0.65 489.5 0.65L489.5 0.65Q484.8 0.65 482.13-2.68 479.45-6 479.45-12.4L479.45-12.4Q479.45-16.2 480.68-18.75 481.9-21.3 483.75-22.83 485.6-24.35 487.73-25 489.85-25.65 491.65-25.65L491.65-25.65Q492.55-25.65 493.55-25.53 494.55-25.4 496.5-24.9L496.5-24.9 496.5-37.45 500.5-37.9 500.5-4.55Q500.5-3.85 500.53-3.08 500.55-2.3 500.63-1.55 500.7-0.8 500.8 0L500.8 0 496.95 0.4ZM525.6-3.95L526.35-0.6Q525.2-0.25 523.97 0 522.75 0.25 521.27 0.45 519.8 0.65 518.2 0.65L518.2 0.65Q515.7 0.65 513.55-0.05 511.4-0.75 509.8-2.3 508.2-3.85 507.27-6.33 506.35-8.8 506.35-12.4L506.35-12.4Q506.35-15.65 507.25-18.13 508.15-20.6 509.72-22.28 511.3-23.95 513.42-24.8 515.55-25.65 518.05-25.65L518.05-25.65Q520.5-25.65 522.3-24.7 524.1-23.75 525.27-22.13 526.45-20.5 527.02-18.32 527.6-16.15 527.6-13.75L527.6-13.75 526.85-11.55 510.7-11.55Q510.7-10 511.1-8.45 511.5-6.9 512.47-5.65 513.45-4.4 515.02-3.63 516.6-2.85 518.95-2.85L518.95-2.85Q520.45-2.85 521.7-3.03 522.95-3.2 523.87-3.43 524.8-3.65 525.6-3.95L525.6-3.95ZM510.85-14.75L523.45-14.75Q523.45-15.1 523.3-16.3 523.15-17.5 522.6-18.8 522.05-20.1 520.9-21.13 519.75-22.15 517.85-22.15L517.85-22.15Q515.75-22.15 514.4-21.28 513.05-20.4 512.25-19.2 511.45-18 511.15-16.75 510.85-15.5 510.85-14.75L510.85-14.75ZM512.4-32.3L521-38.55 523.6-35.5 514.1-30.05 512.4-32.3ZM552.75-24.55L552.75 2.4Q552.75 4.25 552.35 6 551.95 7.75 550.82 9.13 549.7 10.5 547.67 11.33 545.65 12.15 542.35 12.15L542.35 12.15Q540.25 12.1 538.7 11.9 537.15 11.7 535.75 11.33 534.35 10.95 533.2 10.45L533.2 10.45 534.25 6.95Q536.2 7.8 538.22 8.25 540.25 8.7 541.85 8.7L541.85 8.7Q543.6 8.7 544.9 8.35 546.2 8 547.07 7.18 547.95 6.35 548.37 5 548.8 3.65 548.8 1.65L548.8 1.65 548.8-2Q547.75-1.3 546.62-0.73 545.5-0.15 544.22 0.25 542.95 0.65 541.75 0.65L541.75 0.65Q537.1 0.65 534.4-2.63 531.7-5.9 531.7-12.4L531.7-12.4Q531.7-16.15 532.87-18.68 534.05-21.2 535.85-22.75 537.65-24.3 539.8-24.98 541.95-25.65 543.9-25.65L543.9-25.65Q546.45-25.65 548.57-25.23 550.7-24.8 552.75-24.55L552.75-24.55ZM542.2-2.85L542.2-2.85Q543.3-2.85 544.45-3.25 545.6-3.65 546.67-4.2 547.75-4.75 548.8-5.5L548.8-5.5 548.8-21.45Q548.2-21.6 547.4-21.8L547.4-21.8Q546.7-21.9 545.8-22.03 544.9-22.15 543.9-22.15L543.9-22.15Q541.8-22.15 540.3-21.4 538.8-20.65 537.82-19.35 536.85-18.05 536.4-16.3 535.95-14.55 535.95-12.6L535.95-12.6Q535.95-10.85 536.32-9.1 536.7-7.35 537.5-5.95 538.3-4.55 539.45-3.7 540.6-2.85 542.2-2.85ZM575.29 0.4L574.99-2.75 574.89-2.75Q574.44-2.4 573.59-1.83 572.74-1.25 571.64-0.7 570.54-0.15 569.22 0.25 567.89 0.65 566.54 0.65L566.54 0.65Q564.69 0.65 563.39 0.18 562.09-0.3 561.29-1.4 560.49-2.5 560.14-4.3 559.79-6.1 559.79-8.8L559.79-8.8 559.79-25.15 563.79-25.15 563.79-9.4Q563.79-7.9 563.84-6.7 563.89-5.5 564.19-4.65 564.49-3.8 565.17-3.33 565.84-2.85 567.09-2.85L567.09-2.85Q568.39-2.85 569.79-3.4 571.19-3.95 572.34-4.65L572.34-4.65Q573.69-5.45 574.99-6.45L574.99-6.45 574.99-25.15 578.99-25.15 578.99-3.25Q579.04-1.45 579.24 0L579.24 0 575.29 0.4ZM600.54-24.6L599.84-21.05Q597.74-21.7 596.11-21.93 594.49-22.15 593.14-22.15L593.14-22.15Q591.39-22.15 590.21-21.3 589.04-20.45 589.04-19.1L589.04-19.1Q589.09-17.9 590.09-17.05 591.09-16.2 592.41-15.53 593.74-14.85 595.36-14.05 596.99-13.25 598.41-12.25 599.84-11.25 600.74-9.85 601.64-8.45 601.69-6.5L601.69-6.5Q601.64-4.4 600.76-3.03 599.89-1.65 598.51-0.83 597.14 0 595.54 0.33 593.94 0.65 592.54 0.65L592.54 0.65Q590.74 0.65 588.81 0.45 586.89 0.25 584.69-0.4L584.69-0.4 585.44-4Q587.69-3.4 589.54-3.13 591.39-2.85 592.59-2.85L592.59-2.85Q593.49-2.85 594.36-3.05 595.24-3.25 595.94-3.63 596.64-4 597.06-4.6 597.49-5.2 597.49-5.95L597.49-5.95Q597.44-7.35 596.54-8.33 595.64-9.3 594.21-10.08 592.79-10.85 591.16-11.63 589.54-12.4 588.11-13.43 586.69-14.45 585.74-15.88 584.79-17.3 584.79-19.4L584.79-19.4Q584.79-20.9 585.56-22.08 586.34-23.25 587.56-24.03 588.79-24.8 590.26-25.23 591.74-25.65 593.14-25.65L593.14-25.65Q594.59-25.65 596.39-25.43 598.19-25.2 600.54-24.6L600.54-24.6ZM608.94-32.15L612.94-32.65 612.94-25.15 620.19-25.15 620.19-21.9 612.94-21.9 612.94-8.55Q612.94-6.9 613.01-5.8 613.09-4.7 613.34-4.05 613.59-3.4 614.04-3.13 614.49-2.85 615.19-2.85L615.19-2.85Q617.09-2.9 619.59-4.25L619.59-4.25 620.79-1.2Q619.14-0.1 617.71 0.28 616.29 0.65 614.89 0.65L614.89 0.65Q611.59 0.65 610.26-1.23 608.94-3.1 608.94-7.45L608.94-7.45 608.94-21.9 604.34-21.9 604.34-25.15 608.94-25.15 608.94-32.15ZM642.93-3.95L643.68-0.6Q642.53-0.25 641.31 0 640.08 0.25 638.61 0.45 637.13 0.65 635.53 0.65L635.53 0.65Q633.03 0.65 630.88-0.05 628.73-0.75 627.13-2.3 625.53-3.85 624.61-6.33 623.68-8.8 623.68-12.4L623.68-12.4Q623.68-15.65 624.58-18.13 625.48-20.6 627.06-22.28 628.63-23.95 630.76-24.8 632.88-25.65 635.38-25.65L635.38-25.65Q637.83-25.65 639.63-24.7 641.43-23.75 642.61-22.13 643.78-20.5 644.36-18.32 644.93-16.15 644.93-13.75L644.93-13.75 644.18-11.55 628.03-11.55Q628.03-10 628.43-8.45 628.83-6.9 629.81-5.65 630.78-4.4 632.36-3.63 633.93-2.85 636.28-2.85L636.28-2.85Q637.78-2.85 639.03-3.03 640.28-3.2 641.21-3.43 642.13-3.65 642.93-3.95L642.93-3.95ZM628.18-14.75L640.78-14.75Q640.78-15.1 640.63-16.3 640.48-17.5 639.93-18.8 639.38-20.1 638.23-21.13 637.08-22.15 635.18-22.15L635.18-22.15Q633.08-22.15 631.73-21.28 630.38-20.4 629.58-19.2 628.78-18 628.48-16.75 628.18-15.5 628.18-14.75L628.18-14.75ZM647.98 0L647.98-1.55 662.33-22.05Q660.23-21.9 659.36-21.88 658.48-21.85 657.38-21.85L657.38-21.85 649.23-21.85 649.23-25.15 667.98-25.15 667.98-23.4 653.88-3.15Q655.68-3.25 656.28-3.28 656.88-3.3 657.43-3.3L657.43-3.3 667.93-3.3 667.93 0 647.98 0ZM685.88-9.1L684.88-36.4 689.98-36.95 689.13-9.1 685.88-9.1ZM684.43-2.95L684.43-2.95Q684.43-4.15 685.28-5.03 686.13-5.9 687.38-5.9L687.38-5.9Q688.68-5.9 689.58-5.03 690.48-4.15 690.48-2.95L690.48-2.95Q690.48-1.7 689.58-0.85 688.68 0 687.38 0L687.38 0Q686.13 0 685.28-0.85 684.43-1.7 684.43-2.95Z" opacity="1" transform="matrix(1,0,0,1,0,0)" fill="#f36527" class="slogan-text-1" data-fill-palette-color="secondary" id="text-1"></path></svg></g></svg></g></svg></g></svg></g><g transform="matrix(1,0,0,1,75.54432000000001,0)"><svg viewBox="0 0 244.43136 208.8530176" height="208.8530176" width="244.43136"><g><svg xmlns="http://www.w3.org/2000/svg" xmlns:xlink="http://www.w3.org/1999/xlink" version="1.1" x="0" y="0" viewBox="5 15.7 90 76.89999999999999" enable-background="new 0 0 100 100" xml:space="preserve" height="208.8530176" width="244.43136" class="icon-icon-0" data-fill-palette-color="accent" id="icon-0"><path d="M65.9 48.2L66.2 48.3C64 55.2 57.7 59.7 50.1 59.7S36.2 55.3 34 48.5L34.3 48.4C36.4 55.1 42.6 59.4 50 59.4 57.5 59.3 63.7 55 65.9 48.2M95 64.6C90.9 72.9 84.7 79.9 76.9 84.8 68.9 89.9 59.6 92.6 50 92.6S31.1 89.9 23 84.7C15.3 79.7 9 72.7 5 64.4 9.3 58.5 16.7 53.4 26 50.3L26.2 50.2 26 49.5C25.4 47.8 25.1 46 25 44.2V43.4L24.8 43.5C24 43.7 23.2 43.8 22.3 43.8 17.8 43.8 14.2 40.8 14.2 37.2 14.2 36.9 14.2 36.6 14.3 36.3V36.1L14 36C10.7 35.4 8.3 32.6 8.3 29.4 8.3 25.7 11.5 22.7 15.4 22.7 15.8 22.7 16.2 22.7 16.7 22.8H16.9V22.6C17.2 18.8 20.8 15.7 25.2 15.7 29.8 15.7 33.5 19 33.5 23V23.4L33.8 23.2C38.2 19.5 43.9 17.5 49.7 17.5 55.7 17.5 61.5 19.7 66.1 23.7L66.4 23.9V23.4C66.4 19.4 70.1 16.1 74.7 16.1 79.1 16.1 82.8 19.1 83 23V23.2H83.2C83.6 23.1 84 23.1 84.5 23.1 88.4 23.1 91.6 26.1 91.6 29.8 91.6 33 89.2 35.8 85.9 36.4H85.7V36.6C85.8 36.9 85.8 37.2 85.8 37.5 85.8 41.1 82.2 44.1 77.7 44.1 76.7 44.1 75.7 43.9 74.7 43.6L74.5 43.5V44.3C74.4 46 74.1 47.7 73.6 49.4L73.3 50 73.5 50.1C83.1 53.3 90.7 58.4 95 64.6M54.5 31.9C54.5 32.7 55.2 33.4 56 33.4S57.5 32.7 57.5 31.9 56.8 30.4 56 30.4C55.2 30.5 54.5 31.1 54.5 31.9M42.7 32.2C42.7 33 43.4 33.7 44.2 33.7S45.7 33 45.7 32.2 45 30.7 44.2 30.7 42.7 31.3 42.7 32.2M43.5 48.7C43.8 49.1 44.2 49.5 44.6 49.8 53.3 55.6 62.8 46.2 56.9 37.5 56.6 37.1 56.2 36.7 55.8 36.4 47 30.6 37.6 40 43.5 48.7M68.1 46C67.7 45.5 67.1 45.2 66.4 45.2 65.3 45.2 64.3 46.1 63.7 47.5 61 53.2 56 56.6 50.2 56.6S39.2 53 36.5 47.2C36 46 35 45.3 33.8 45.3 33.1 45.3 32.4 45.6 31.9 46.2 31.5 46.6 31.1 47.4 31.3 48.7 34 57.2 41.4 62.7 50.2 62.7 58.9 62.7 66 57.3 68.3 48.9 68.8 47.7 68.7 46.7 68.1 46" fill="#f36527" data-fill-palette-color="accent"></path></svg></g></svg></g><g></g></svg></g><defs></defs></svg><rect width="250.48898833100444" height="247.2" fill="none" stroke="none" visibility="hidden"></rect></g></svg></g></svg>